<mxfile host="app.diagrams.net" modified="2022-10-06T09:52:18.175Z" agent="5.0 (Macintosh)" etag="fOQK80uah-MajcmTTvjz" version="20.4.0" type="github">
  <diagram id="0oul43BWb-qJfb__dQIe" name="Страница 1">
    <mxGraphModel dx="823" dy="557" grid="1" gridSize="10" guides="1" tooltips="1" connect="1" arrows="1" fold="1" page="1" pageScale="1" pageWidth="827" pageHeight="1169" math="0" shadow="0">
      <root>
        <mxCell id="0" />
        <mxCell id="1" parent="0" />
        <mxCell id="vFxsQ9KTzPnqvWqe9Mc6-1" value="&lt;p style=&quot;margin:0px;margin-top:4px;text-align:center;&quot;&gt;&lt;b&gt;SearchByUinFragmentPresenter&lt;/b&gt;&lt;/p&gt;&lt;hr size=&quot;1&quot;&gt;&lt;p style=&quot;margin:0px;margin-left:4px;&quot;&gt;+ route: SearchByUinFragmentRoute&lt;br&gt;&lt;/p&gt;&lt;hr size=&quot;1&quot;&gt;&lt;p style=&quot;margin:0px;margin-left:4px;&quot;&gt;+ onFirstLoad() {&lt;/p&gt;&lt;p style=&quot;margin:0px;margin-left:4px;&quot;&gt;bm.backNavigationAction bindTo ::listenerBackNavigation&lt;/p&gt;&lt;p style=&quot;margin:0px;margin-left:4px;&quot;&gt;bm.uinAction bindTo ::listenerUin&lt;/p&gt;&lt;p style=&quot;margin:0px;margin-left:4px;&quot;&gt;bm.noUinAction bindTo ::listenerNoUin&lt;/p&gt;&lt;p style=&quot;margin:0px;margin-left:4px;&quot;&gt;bm.searchAction bindTo::listenerSearch&lt;/p&gt;&lt;p style=&quot;margin:0px;margin-left:4px;&quot;&gt;bm.transferAction bindTo ::listenerTransfer&lt;br&gt;&lt;/p&gt;&lt;p style=&quot;margin:0px;margin-left:4px;&quot;&gt;&lt;br&gt;&lt;/p&gt;&lt;p style=&quot;margin:0px;margin-left:4px;&quot;&gt;loadInitialData()&lt;br&gt;&lt;/p&gt;&lt;p style=&quot;margin:0px;margin-left:4px;&quot;&gt;}&lt;/p&gt;&lt;p style=&quot;margin:0px;margin-left:4px;&quot;&gt;&lt;br&gt;&lt;/p&gt;&lt;p style=&quot;margin:0px;margin-left:4px;&quot;&gt;+ loadInitialData() {&lt;/p&gt;&lt;p style=&quot;margin:0px;margin-left:4px;&quot;&gt;requests = Single.zip(&lt;/p&gt;&lt;p style=&quot;margin:0px;margin-left:4px;&quot;&gt;transfersInteractor.getTransfersToBudgetDocument()&lt;/p&gt;&lt;p style=&quot;margin:0px;margin-left:4px;&quot;&gt;customerRepository.getPersonalCustomerInfo()&lt;br&gt;&lt;/p&gt;&lt;p style=&quot;margin:0px;margin-left:4px;&quot;&gt;)&lt;br&gt;&lt;/p&gt;&lt;p style=&quot;margin:0px;margin-left:4px;&quot;&gt;subscribeIoHandleError(&lt;/p&gt;&lt;p style=&quot;margin:0px;margin-left:4px;&quot;&gt;requests&lt;/p&gt;&lt;p style=&quot;margin:0px;margin-left:4px;&quot;&gt;.addLoadingState(для счетов)&lt;/p&gt;&lt;p style=&quot;margin:0px;margin-left:4px;&quot;&gt;.addLoadingState(для ИНН)&lt;/p&gt;&lt;p style=&quot;margin:0px;margin-left:4px;&quot;&gt;.addLoadingState(для УИН и кнопки &quot;Нет УИН&quot;)&lt;/p&gt;&lt;p style=&quot;margin:0px;margin-left:4px;&quot;&gt;) { (document, customerInfo) -&amp;gt;&lt;br&gt;&lt;/p&gt;&lt;p style=&quot;margin:0px;margin-left:4px;&quot;&gt;Установить счета и инн&lt;br&gt;&lt;/p&gt;&lt;p style=&quot;margin:0px;margin-left:4px;&quot;&gt;}&lt;br&gt;&lt;/p&gt;&lt;p style=&quot;margin:0px;margin-left:4px;&quot;&gt;}&lt;/p&gt;&lt;p style=&quot;margin:0px;margin-left:4px;&quot;&gt;&lt;br&gt;&lt;/p&gt;&lt;p style=&quot;margin:0px;margin-left:4px;&quot;&gt;+ listenerUin() {&lt;/p&gt;&lt;p style=&quot;margin:0px;margin-left:4px;&quot;&gt;обработать ввод uin&lt;br&gt;&lt;/p&gt;&lt;p style=&quot;margin:0px;margin-left:4px;&quot;&gt;}&lt;/p&gt;&lt;p style=&quot;margin:0px;margin-left:4px;&quot;&gt;&lt;br&gt;&lt;/p&gt;&lt;p style=&quot;margin:0px;margin-left:4px;&quot;&gt;+ listenerNoUin() {&lt;/p&gt;&lt;p style=&quot;margin:0px;margin-left:4px;&quot;&gt;dialogNavigator.show(BottomSheetRoute(...))&lt;br&gt;&lt;/p&gt;&lt;p style=&quot;margin:0px;margin-left:4px;&quot;&gt;}&lt;/p&gt;&lt;p style=&quot;margin:0px;margin-left:4px;&quot;&gt;&lt;br&gt;&lt;/p&gt;&lt;p style=&quot;margin:0px;margin-left:4px;&quot;&gt;+ listenerSearch(uin: String) {&lt;/p&gt;&lt;p style=&quot;margin:0px;margin-left:4px;&quot;&gt;subscribeIoHandleError(&lt;/p&gt;&lt;p style=&quot;margin:0px;margin-left:4px;&quot;&gt;transfersInteractor.НовыйМетодСПередачейУин()&lt;br&gt;&lt;/p&gt;&lt;p style=&quot;margin:0px;margin-left:4px;&quot;&gt;) {&lt;/p&gt;&lt;p style=&quot;margin:0px;margin-left:4px;&quot;&gt;// TODO: ...&lt;br&gt;&lt;/p&gt;&lt;p style=&quot;margin:0px;margin-left:4px;&quot;&gt;}&lt;br&gt;&lt;/p&gt;&lt;p style=&quot;margin:0px;margin-left:4px;&quot;&gt;}&lt;/p&gt;&lt;p style=&quot;margin:0px;margin-left:4px;&quot;&gt;&lt;br&gt;&lt;/p&gt;&lt;p style=&quot;margin:0px;margin-left:4px;&quot;&gt;+ listenerTransfer() {&lt;/p&gt;&lt;p style=&quot;margin:0px;margin-left:4px;&quot;&gt;subscribeIoHandleError(&lt;/p&gt;&lt;p style=&quot;margin:0px;margin-left:4px;&quot;&gt;перевод&lt;br&gt;&lt;/p&gt;&lt;p style=&quot;margin:0px;margin-left:4px;&quot;&gt;) {&lt;/p&gt;&lt;p style=&quot;margin:0px;margin-left:4px;&quot;&gt;// TODO: ...&lt;br&gt;&lt;/p&gt;&lt;p style=&quot;margin:0px;margin-left:4px;&quot;&gt;}&lt;br&gt;&lt;/p&gt;&lt;p style=&quot;margin:0px;margin-left:4px;&quot;&gt;}&lt;br&gt;&lt;/p&gt;" style="verticalAlign=top;align=left;overflow=fill;fontSize=12;fontFamily=Helvetica;html=1;" vertex="1" parent="1">
          <mxGeometry x="360" y="80" width="320" height="760" as="geometry" />
        </mxCell>
        <mxCell id="vFxsQ9KTzPnqvWqe9Mc6-2" value="&lt;p style=&quot;margin:0px;margin-top:4px;text-align:center;&quot;&gt;&lt;b&gt;SearchByUinFragmentRoute&lt;/b&gt;&lt;/p&gt;&lt;hr size=&quot;1&quot;&gt;&lt;p style=&quot;margin:0px;margin-left:4px;&quot;&gt;+ defaultSourceProduct: Product? = null, &lt;br&gt;&lt;/p&gt;&lt;hr size=&quot;1&quot;&gt;&lt;p style=&quot;margin:0px;margin-left:4px;&quot;&gt;+ как в TransferToBudgetRoute&lt;br&gt;&lt;/p&gt;" style="verticalAlign=top;align=left;overflow=fill;fontSize=12;fontFamily=Helvetica;html=1;" vertex="1" parent="1">
          <mxGeometry x="80" y="80" width="240" height="80" as="geometry" />
        </mxCell>
        <mxCell id="vFxsQ9KTzPnqvWqe9Mc6-3" value="&lt;p style=&quot;margin:0px;margin-top:4px;text-align:center;&quot;&gt;&lt;b&gt;SearchByUinFragmentBindModel&lt;/b&gt;&lt;/p&gt;&lt;hr size=&quot;1&quot;&gt;&lt;p style=&quot;margin:0px;margin-left:4px;&quot;&gt;+ наследоваться от новой bindModel&lt;br&gt;&lt;/p&gt;&lt;hr size=&quot;1&quot;&gt;&lt;p style=&quot;margin:0px;margin-left:4px;&quot;&gt;+ method(): Type&lt;/p&gt;" style="verticalAlign=top;align=left;overflow=fill;fontSize=12;fontFamily=Helvetica;html=1;" vertex="1" parent="1">
          <mxGeometry x="720" y="80" width="240" height="80" as="geometry" />
        </mxCell>
        <mxCell id="vFxsQ9KTzPnqvWqe9Mc6-4" value="&lt;p style=&quot;margin:0px;margin-top:4px;text-align:center;&quot;&gt;&lt;b&gt;SearchByUinActivityPresenter&lt;/b&gt;&lt;/p&gt;&lt;hr size=&quot;1&quot;&gt;&lt;p style=&quot;margin:0px;margin-left:4px;&quot;&gt;+ обработать кнопку назад&lt;br&gt;&lt;/p&gt;&lt;hr size=&quot;1&quot;&gt;&lt;p style=&quot;margin:0px;margin-left:4px;&quot;&gt;+ method(): Type&lt;/p&gt;" style="verticalAlign=top;align=left;overflow=fill;fontSize=12;fontFamily=Helvetica;html=1;" vertex="1" parent="1">
          <mxGeometry x="720" y="240" width="240" height="80" as="geometry" />
        </mxCell>
        <mxCell id="vFxsQ9KTzPnqvWqe9Mc6-5" value="30m" style="shape=umlFrame;whiteSpace=wrap;html=1;" vertex="1" parent="1">
          <mxGeometry x="70" y="40" width="260" height="130" as="geometry" />
        </mxCell>
        <mxCell id="vFxsQ9KTzPnqvWqe9Mc6-6" value="2h 40m " style="shape=umlFrame;whiteSpace=wrap;html=1;width=90;height=30;" vertex="1" parent="1">
          <mxGeometry x="350" y="40" width="340" height="810" as="geometry" />
        </mxCell>
        <mxCell id="vFxsQ9KTzPnqvWqe9Mc6-7" value="20m" style="shape=umlFrame;whiteSpace=wrap;html=1;" vertex="1" parent="1">
          <mxGeometry x="710" y="40" width="260" height="130" as="geometry" />
        </mxCell>
        <mxCell id="vFxsQ9KTzPnqvWqe9Mc6-8" value="1h" style="shape=umlFrame;whiteSpace=wrap;html=1;" vertex="1" parent="1">
          <mxGeometry x="710" y="200" width="260" height="130" as="geometry" />
        </mxCell>
        <mxCell id="vFxsQ9KTzPnqvWqe9Mc6-9" value="4h 30m + 1h 30m (отладка) + 1h (ревью) = 7h + 1h (моки) = 8h" style="shape=umlFrame;whiteSpace=wrap;html=1;width=380;height=30;" vertex="1" parent="1">
          <mxGeometry x="60" width="920" height="860" as="geometry" />
        </mxCell>
      </root>
    </mxGraphModel>
  </diagram>
</mxfile>
